<svg xmlns="http://www.w3.org/2000/svg" width="16" height="14" viewBox="0 0 16 14"><g><g opacity=".25"><path d="M16.014 6.997a.733.733 0 0 1-.245.545l-6.771 6.23a.869.869 0 0 1-.59.222.866.866 0 0 1-.587-.223l-.498-.459a.729.729 0 0 1 0-1.082l5.685-5.233L7.329 1.77a.722.722 0 0 1 0-1.081l.498-.46a.857.857 0 0 1 .588-.223c.223 0 .433.078.586.224l6.768 6.226a.722.722 0 0 1 .245.54zm-7.083 0a.724.724 0 0 1-.244.545l-6.772 6.23a.862.862 0 0 1-.59.222.864.864 0 0 1-.587-.223l-.498-.459a.73.73 0 0 1 0-1.082l5.692-5.233L.248 1.77a.724.724 0 0 1 0-1.081l.495-.46a.866.866 0 0 1 .59-.223c.224 0 .432.078.587.224l6.767 6.226a.713.713 0 0 1 .244.54z"/></g></g></svg>